<?xml version="1.0" encoding="utf-8"?>
<svg viewBox="0 0 24 24" fill="none" xmlns="http://www.w3.org/2000/svg" pointer-events="all" class="addSvg">
    <defs>
        <linearGradient id="growRedYellow" x1="100%" y1="100%" x2="0%" y2="0%">
            <stop offset="0%" class="red" />
            <stop offset="100%" class="yellow" />
        </linearGradient>
    </defs>
    <style>
        .red {
            stop-color: #303030;
        }
        .yellow {
            stop-color: #303030;
        }
        svg:hover .red {
            stop-color: #ff0000;
        }

        svg:hover .yellow {
            stop-color: #ffff00;
        }
    </style>
    <path
        d="M11 4H15.8002C16.9203 4 17.4801 4 17.9079 4.21799C18.2842 4.40973 18.5905 4.71547 18.7822 5.0918C19 5.5192 19 6.07899 19 7.19691V9.0002L11.0001 9.0001M11 4H6.2002C5.08009 4 4.51962 4 4.0918 4.21799C3.71547 4.40973 3.40973 4.71547 3.21799 5.0918C3 5.51962 3 6.08009 3 7.2002V9M11 4L11.0001 9.0001M3 9V15M3 9L11.0001 9.0001M3 15V16.8002C3 17.9203 3 18.4801 3.21799 18.9079C3.40973 19.2842 3.71547 19.5905 4.0918 19.7822C4.5192 20 5.07899 20 6.19691 20H11.0002L11.0001 9.0001M3 15H11"
        stroke="url(#growRedYellow)" stroke-width="1" stroke-linecap="round" stroke-linejoin="round" />
    <path
        d="M20.1498 7.93997L8.27978 19.81C7.21978 20.88 4.04977 21.3699 3.32977 20.6599C2.60977 19.9499 3.11978 16.78 4.17978 15.71L16.0498 3.84C16.5979 3.31801 17.3283 3.03097 18.0851 3.04019C18.842 3.04942 19.5652 3.35418 20.1004 3.88938C20.6356 4.42457 20.9403 5.14781 20.9496 5.90463C20.9588 6.66146 20.6718 7.39189 20.1498 7.93997V7.93997Z"
        stroke="url(#growRedYellow)" stroke-width="2" stroke-linecap="round" stroke-linejoin="round" style="transform: scale(0.4) translate(30px, 27px);"/>
</svg>